<svg id="Layer_1" data-name="Layer 1" xmlns="http://www.w3.org/2000/svg" viewBox="0 0 103.4 45.66"><defs><style>.cls-1{fill:#fff;}</style></defs><path class="cls-1" d="M61.79,26.83l1.77-8h3.66A2.21,2.21,0,0,1,69.46,21,3,3,0,0,1,66.14,24h-2l-.64,2.86Zm4.46-4.36a1.3,1.3,0,0,0,1.43-1.25.91.91,0,0,0-1-.9H64.94l-.48,2.15h1.79Z"/><path class="cls-1" d="M70.86,26.83l1.77-8h1.7l-1.76,8Z"/><path class="cls-1" d="M78,26.83l-1.32-8h1.84L79.35,25l3.57-6.15h2l-4.86,8Z"/><path class="cls-1" d="M85.82,23.38a4.62,4.62,0,0,1,4.66-4.7c2.21,0,3.94,1.39,3.94,3.58A4.63,4.63,0,0,1,89.76,27C87.54,27,85.82,25.58,85.82,23.38Zm6.81-1a2.12,2.12,0,0,0-2.26-2.18,2.9,2.9,0,0,0-2.76,3.07,2.11,2.11,0,0,0,2.25,2.19A2.91,2.91,0,0,0,92.63,22.38Z"/><path class="cls-1" d="M97.59,26.83,99,20.32H96.69l.32-1.5h6.39l-.32,1.5h-2.34l-1.43,6.51Z"/><path class="cls-1" d="M13,45.66H0L17.49,2.09A3.47,3.47,0,0,1,20.42,0H29.2c1.15,0,1.72.94,1.25,2.09Z"/><path class="cls-1" d="M37,29.5H26.11c-1.15,0-1.71-.94-1.25-2.09L35.86,0h13Z"/></svg>