<svg width="48" height="57" viewBox="0 0 48 57" fill="none" xmlns="http://www.w3.org/2000/svg">
<path d="M24 34L24 2" stroke="black" stroke-width="3" stroke-miterlimit="10" stroke-linecap="round" stroke-linejoin="round"/>
<path d="M24 55.3334L24 44.6667" stroke="black" stroke-width="3" stroke-miterlimit="10" stroke-linecap="round" stroke-linejoin="round"/>
<path d="M18.6668 39.3333C18.6668 42.2789 21.0546 44.6667 24.0002 44.6667C26.9457 44.6667 29.3335 42.2789 29.3335 39.3333C29.3335 36.3878 26.9457 34 24.0002 34C21.0546 34 18.6668 36.3878 18.6668 39.3333Z" fill="black"/>
<path d="M42.6665 55.3335L42.6665 23.3335" stroke="black" stroke-width="3" stroke-miterlimit="10" stroke-linecap="round" stroke-linejoin="round"/>
<path d="M42.6665 12.6667L42.6665 2" stroke="black" stroke-width="3" stroke-miterlimit="10" stroke-linecap="round" stroke-linejoin="round"/>
<path d="M37.3333 18.0001C37.3333 20.9456 39.7211 23.3334 42.6667 23.3334C45.6122 23.3334 48 20.9456 48 18.0001C48 15.0546 45.6122 12.6667 42.6667 12.6667C39.7211 12.6667 37.3333 15.0546 37.3333 18.0001Z" fill="black"/>
<path d="M5.33349 55.3333L5.3335 23.3333" stroke="black" stroke-width="3" stroke-miterlimit="10" stroke-linecap="round" stroke-linejoin="round"/>
<path d="M5.3335 12.6667L5.3335 2" stroke="black" stroke-width="3" stroke-miterlimit="10" stroke-linecap="round" stroke-linejoin="round"/>
<path d="M0.000325923 18.0001C0.000325795 20.9456 2.38814 23.3334 5.33366 23.3334C8.27918 23.3334 10.667 20.9456 10.667 18.0001C10.667 15.0546 8.27918 12.6667 5.33366 12.6667C2.38814 12.6667 0.000326052 15.0546 0.000325923 18.0001Z" fill="black"/>
</svg>
