<svg id="contours" xmlns="http://www.w3.org/2000/svg" xmlns:xlink="http://www.w3.org/1999/xlink" viewBox="0 0 1440 900"><defs><style>.cls-1,.cls-4{fill:none;}.cls-2{clip-path:url(#clip-path);}.cls-3{opacity:0.1;}.cls-4{stroke:#fff;stroke-miterlimit:10;}</style><clipPath id="clip-path"><rect class="cls-1" x="0.62" width="1439.38" height="900"/></clipPath></defs><g class="cls-2"><g class="cls-3"><path class="cls-4" d="M170.71-125.7S178.43-17.6,688.05,205s749,211.06,826.2,319.16"/><path class="cls-4" d="M853.33-9c-40,68.46-188.84,86.58-312.21,11.37C413.38-75.52,340.61-216.74,388.54-293.26S578.11-367.42,704.91-288,898.91-86.95,853.33-9Z"/><path class="cls-4" d="M1763.89,70.2C1721.3,143.14,1560.45,161,1426.14,79c-139.09-84.84-219.35-237-168.3-318.48s204.36-77.45,342.43,9S1812.38-12.84,1763.89,70.2Z"/><path class="cls-4" d="M1469.33,755.8c-18.1-33.34-49.27-82-100.26-127.5-169-150.77-402.21-131.15-494.75-121C670.64,529.76,478.61,635,300.39,728.06,132.24,815.9-44.51,915.91-238.38,922.94"/><path class="cls-4" d="M689.11,721c-64.78,41-96.86,119-88,194.12,7.22,61.5,38.66,119,78.24,165.74,97.41,114.93,241.58,169.92,387.22,192.08,89.78,13.65,182.88,15.37,271.34-7.51,37.36-9.67,77.59-26.32,93.9-64.13,16.57-38.38,3.59-83.09-12.84-119.19-39.43-86.67-118.71-140.6-195.65-191.36-104.93-69.24-213.72-149.55-334.89-187.38C820.92,682.3,747.54,684,689.11,721Z"/></g></g></svg>