<svg width="52" height="57" viewBox="0 0 52 57" fill="none" xmlns="http://www.w3.org/2000/svg">
<path d="M26 34L26 2" stroke="black" stroke-width="3" stroke-miterlimit="10" stroke-linecap="round" stroke-linejoin="round"/>
<path d="M26 55.3334L26 44.6667" stroke="black" stroke-width="3" stroke-miterlimit="10" stroke-linecap="round" stroke-linejoin="round"/>
<path d="M20.6668 39.3333C20.6668 42.2789 23.0546 44.6667 26.0002 44.6667C28.9457 44.6667 31.3335 42.2789 31.3335 39.3333C31.3335 36.3878 28.9457 34 26.0002 34C23.0546 34 20.6668 36.3878 20.6668 39.3333Z" fill="white" stroke="white" stroke-width="3" stroke-miterlimit="10" stroke-linecap="round" stroke-linejoin="round"/>
<path d="M44.6665 55.3335L44.6665 23.3335" stroke="black" stroke-width="3" stroke-miterlimit="10" stroke-linecap="round" stroke-linejoin="round"/>
<path d="M44.6665 12.6667L44.6665 2" stroke="black" stroke-width="3" stroke-miterlimit="10" stroke-linecap="round" stroke-linejoin="round"/>
<path d="M39.3333 18.0001C39.3333 20.9456 41.7211 23.3334 44.6667 23.3334C47.6122 23.3334 50 20.9456 50 18.0001C50 15.0546 47.6122 12.6667 44.6667 12.6667C41.7211 12.6667 39.3333 15.0546 39.3333 18.0001Z" fill="white" stroke="white" stroke-width="3" stroke-miterlimit="10" stroke-linecap="round" stroke-linejoin="round"/>
<path d="M7.33349 55.3333L7.3335 23.3333" stroke="black" stroke-width="3" stroke-miterlimit="10" stroke-linecap="round" stroke-linejoin="round"/>
<path d="M7.3335 12.6667L7.3335 2" stroke="black" stroke-width="3" stroke-miterlimit="10" stroke-linecap="round" stroke-linejoin="round"/>
<path d="M2.00033 18.0001C2.00033 20.9456 4.38814 23.3334 7.33366 23.3334C10.2792 23.3334 12.667 20.9456 12.667 18.0001C12.667 15.0546 10.2792 12.6667 7.33366 12.6667C4.38814 12.6667 2.00033 15.0546 2.00033 18.0001Z" fill="white" stroke="white" stroke-width="3" stroke-miterlimit="10" stroke-linecap="round" stroke-linejoin="round"/>
</svg>
